STARTFONT 2.1
FONT -gbdfed-Unknown-Medium-R-Normal--8-120-96-96-P-100-FontSpecific-0
SIZE 12 96 96
FONTBOUNDINGBOX 10 16 0 -4
STARTPROPERTIES 9
POINT_SIZE 120
PIXEL_SIZE 8
RESOLUTION_X 96
RESOLUTION_Y 96
FONT_ASCENT 8
FONT_DESCENT 0
AVERAGE_WIDTH 100
SPACING "C"
_GBDFED_INFO "Edited with gbdfed 1.5."
ENDPROPERTIES
CHARS 23
STARTCHAR space
ENCODING 32
SWIDTH 625 0
DWIDTH 10 0
BBX 10 16 0 -4
BITMAP
0000
0000
0000
0000
0000
0000
0000
0000
0000
0000
0000
0000
0000
0000
0000
0000
ENDCHAR
STARTCHAR asterisk
ENCODING 42
SWIDTH 625 0
DWIDTH 10 0
BBX 10 16 0 -4
BITMAP
0000
0000
0000
0000
0000
0000
9000
6000
F000
6000
9000
0000
0000
0000
0000
0000
ENDCHAR
STARTCHAR hyphen
ENCODING 45
SWIDTH 625 0
DWIDTH 10 0
BBX 10 16 0 -4
BITMAP
0000
0000
0000
0000
0000
0000
0000
0000
F000
0000
0000
0000
0000
0000
0000
0000
ENDCHAR
STARTCHAR period
ENCODING 46
SWIDTH 625 0
DWIDTH 10 0
BBX 10 16 0 -4
BITMAP
0000
0000
0000
0000
0000
0000
0000
0000
0000
0000
0000
8000
0000
0000
0000
0000
ENDCHAR
STARTCHAR 0
ENCODING 48
SWIDTH 625 0
DWIDTH 10 0
BBX 10 16 0 -4
BITMAP
0000
0000
0000
0000
0000
F000
9000
9000
9000
9000
9000
F000
0000
0000
0000
0000
ENDCHAR
STARTCHAR 1
ENCODING 49
SWIDTH 625 0
DWIDTH 10 0
BBX 10 16 0 -4
BITMAP
0000
0000
0000
0000
0000
1000
1000
1000
1000
1000
1000
1000
0000
0000
0000
0000
ENDCHAR
STARTCHAR 2
ENCODING 50
SWIDTH 625 0
DWIDTH 10 0
BBX 10 16 0 -4
BITMAP
0000
0000
0000
0000
0000
F000
1000
1000
F000
8000
8000
F000
0000
0000
0000
0000
ENDCHAR
STARTCHAR 3
ENCODING 51
SWIDTH 625 0
DWIDTH 10 0
BBX 10 16 0 -4
BITMAP
0000
0000
0000
0000
0000
F000
1000
1000
F000
1000
1000
F000
0000
0000
0000
0000
ENDCHAR
STARTCHAR 4
ENCODING 52
SWIDTH 625 0
DWIDTH 10 0
BBX 10 16 0 -4
BITMAP
0000
0000
0000
0000
0000
9000
9000
9000
F000
1000
1000
1000
0000
0000
0000
0000
ENDCHAR
STARTCHAR 5
ENCODING 53
SWIDTH 625 0
DWIDTH 10 0
BBX 10 16 0 -4
BITMAP
0000
0000
0000
0000
0000
F000
8000
8000
F000
1000
1000
F000
0000
0000
0000
0000
ENDCHAR
STARTCHAR 6
ENCODING 54
SWIDTH 625 0
DWIDTH 10 0
BBX 10 16 0 -4
BITMAP
0000
0000
0000
0000
0000
F000
8000
8000
F000
9000
9000
F000
0000
0000
0000
0000
ENDCHAR
STARTCHAR 7
ENCODING 55
SWIDTH 625 0
DWIDTH 10 0
BBX 10 16 0 -4
BITMAP
0000
0000
0000
0000
0000
F000
1000
1000
1000
1000
1000
1000
0000
0000
0000
0000
ENDCHAR
STARTCHAR 8
ENCODING 56
SWIDTH 625 0
DWIDTH 10 0
BBX 10 16 0 -4
BITMAP
0000
0000
0000
0000
0000
F000
9000
9000
F000
9000
9000
F000
0000
0000
0000
0000
ENDCHAR
STARTCHAR char57
ENCODING 57
SWIDTH 625 0
DWIDTH 10 0
BBX 10 16 0 -4
BITMAP
0000
0000
0000
0000
0000
F000
9000
9000
F000
1000
1000
F000
0000
0000
0000
0000
ENDCHAR
STARTCHAR colon
ENCODING 58
SWIDTH 625 0
DWIDTH 10 0
BBX 10 16 0 -4
BITMAP
0000
0000
0000
0000
0000
0000
0000
8000
0000
8000
0000
0000
0000
0000
0000
0000
ENDCHAR
STARTCHAR A
ENCODING 65
SWIDTH 625 0
DWIDTH 10 0
BBX 10 16 0 -4
BITMAP
0000
0000
0000
0000
0000
F000
9000
9000
F000
9000
9000
9000
0000
0000
0000
0000
ENDCHAR
STARTCHAR B
ENCODING 66
SWIDTH 625 0
DWIDTH 10 0
BBX 10 16 0 -4
BITMAP
0000
0000
0000
0000
0000
E000
9000
9000
E000
9000
9000
E000
0000
0000
0000
0000
ENDCHAR
STARTCHAR C
ENCODING 67
SWIDTH 625 0
DWIDTH 10 0
BBX 10 16 0 -4
BITMAP
0000
0000
0000
0000
0000
F000
8000
8000
8000
8000
8000
F000
0000
0000
0000
0000
ENDCHAR
STARTCHAR char70
ENCODING 70
SWIDTH 625 0
DWIDTH 10 0
BBX 10 16 0 -4
BITMAP
0000
0000
0000
0000
0000
F000
8000
8000
F000
8000
8000
8000
0000
0000
0000
0000
ENDCHAR
STARTCHAR char77
ENCODING 77
SWIDTH 625 0
DWIDTH 10 0
BBX 10 16 0 -4
BITMAP
0000
0000
0000
0000
0000
9000
F000
F000
9000
9000
9000
9000
0000
0000
0000
0000
ENDCHAR
STARTCHAR P
ENCODING 80
SWIDTH 625 0
DWIDTH 10 0
BBX 10 16 0 -4
BITMAP
0000
0000
0000
0000
0000
F000
9000
9000
F000
8000
8000
8000
0000
0000
0000
0000
ENDCHAR
STARTCHAR R
ENCODING 82
SWIDTH 625 0
DWIDTH 10 0
BBX 10 16 0 -4
BITMAP
0000
0000
0000
0000
0000
F000
9000
9000
F000
C000
A000
9000
0000
0000
0000
0000
ENDCHAR
STARTCHAR degree
ENCODING 176
SWIDTH 625 0
DWIDTH 10 0
BBX 10 16 0 -4
BITMAP
0000
0000
0000
0000
0000
2000
5000
2000
0000
0000
0000
0000
0000
0000
0000
0000
ENDCHAR
ENDFONT
